<svg enable-background="new 0 0 32 32" viewBox="0 0 32 32" xmlns="http://www.w3.org/2000/svg"><g clip-rule="evenodd" fill-rule="evenodd"><circle cx="16" cy="16" fill="#0f8ff8" r="16"/><path d="m8 19 .8-2h.9c0-.3 0-.7 0-1 0-.4 0-.9.1-1.3h-1.8l.8-2h1.3c1.2-3.8 3.9-5.7 8-5.7 1.4 0 2.7.2 3.9.5v2.5c-1.2-.5-2.4-.8-3.7-.8-2.5 0-4.1 1.1-4.8 3.4h7.4l-.8 2h-7.1c0 .3-.1.7-.1 1v1.3h6.2l-.8 2h-5c.5 1.4 1.2 2.4 1.9 2.9.8.5 1.9.8 3.3.8 1 0 2.1-.2 3.3-.7v2.4c-1.1.4-2.5.6-4.1.6-4.2 0-6.8-2-7.9-6h-1.8z" fill="#fff"/></g></svg>