<svg xmlns="http://www.w3.org/2000/svg" width="2000" height="2000" viewBox="0 0 2000 2000"><circle cx="1000" cy="1000" r="1000" fill="#50cc00"/><path d="M1406.25,1200c0,162.5-131.25,268.75-325,281.25V1625H950V1481.25c-131.25-12.5-256.25-62.5-356.25-143.75l100-131.25c87.5,68.75,168.75,112.5,268.75,125v-287.5c-218.75-56.25-325-137.5-325-300C637.5,587.5,768.75,475,956.25,462.5V375H1087.5v87.5A631,631,0,0,1,1375,575l-87.5,137.5q-103.12-75-206.25-93.75v275C1306.25,950,1406.25,1037.5,1406.25,1200Zm-450-337.5V606.25c-93.75,6.25-143.75,56.25-143.75,125C812.5,793.75,843.75,831.25,956.25,862.5ZM1225,1206.25c0-62.5-31.25-106.25-150-137.5v262.5C1175,1325,1225,1275,1225,1206.25Z" fill="#fff" fill-rule="evenodd"/></svg>